<svg width="1020" height="1024" viewBox="0 0 1020 1024" fill="none" xmlns="http://www.w3.org/2000/svg">
<path d="M510 953.514C719.37 953.514 889.097 770.665 889.097 545.11C889.097 319.555 719.37 136.706 510 136.706C300.63 136.706 130.902 319.555 130.902 545.11C130.902 770.665 300.63 953.514 510 953.514Z" fill="#DDDFF6"/>
<path d="M849.998 702.792H170.003L510 270.735L849.998 702.792Z" fill="#DDDFF6"/>
<path d="M575.42 1024C611.626 1024 640.977 996.775 640.977 963.191C640.977 929.607 611.626 902.382 575.42 902.382C539.213 902.382 509.862 929.607 509.862 963.191C509.862 996.775 539.213 1024 575.42 1024Z" fill="#F2B200"/>
<path d="M444.305 1024C480.511 1024 509.862 996.775 509.862 963.191C509.862 929.607 480.511 902.382 444.305 902.382C408.098 902.382 378.747 929.607 378.747 963.191C378.747 996.775 408.098 1024 444.305 1024Z" fill="#F2B200"/>
<path d="M766.701 821.057L702.101 887.285L637.501 821.057L702.101 753.253L766.701 821.057ZM510.002 821.057L445.403 887.285L382.503 821.057L445.403 753.253L510.002 821.057ZM382.503 821.057L317.904 887.285L253.304 821.057L317.904 753.253L382.503 821.057ZM637.501 821.057L574.602 887.285L510.002 821.057L574.602 753.253L637.501 821.057Z" fill="#FF6779"/>
<path d="M702.097 753.251L637.498 821.056L574.598 753.251L637.498 685.447L702.097 753.251ZM829.597 753.251L766.697 821.056L702.097 753.251L766.697 685.447L829.597 753.251ZM445.399 753.251L382.5 821.056L317.9 753.251L382.5 685.447L445.399 753.251ZM317.9 753.251L253.3 821.056L190.401 753.251L253.3 685.447L317.9 753.251ZM574.598 753.251L509.999 821.056L445.399 753.251L509.999 685.447L574.598 753.251Z" fill="#DDDFF6"/>
<path d="M766.701 685.449L702.101 753.253L637.501 685.449L702.101 619.221L766.701 685.449ZM510.002 685.449L445.403 753.253L382.503 685.449L445.403 619.221L510.002 685.449ZM382.503 685.449L317.904 753.253L253.304 685.449L317.904 619.221L382.503 685.449Z" fill="#FF6779"/>
<path d="M637.494 685.448L574.594 753.252L509.995 685.448L574.594 619.22L637.494 685.448Z" fill="#FF6779"/>
<path d="M84.9963 489.917C84.9963 489.917 59.4964 757.982 273.695 876.245C343.395 914.09 231.195 819.479 260.095 586.105L84.9963 489.917ZM934.991 489.917C934.991 489.917 960.49 757.982 746.292 876.245C676.592 914.09 788.792 819.479 759.892 586.105L934.991 489.917Z" fill="#777FDB"/>
<path d="M509.995 62.592C509.995 62.592 276.43 -78.24 254.996 62.592C233.563 203.424 509.995 226.584 509.995 226.584C509.995 226.584 802.323 181.294 765.241 62.4715C728.159 -56.3512 509.995 62.592 509.995 62.592Z" fill="#777FDB"/>
<path d="M285.598 638.141C127.499 638.141 0 519.878 0 373.231C0 226.584 127.499 109.897 285.598 109.897C443.697 109.897 571.196 228.161 571.196 374.808C571.196 521.454 441.997 638.141 285.598 638.141Z" fill="#777FDB"/>
<path d="M734.402 638.141C578.003 638.141 448.804 519.878 448.804 373.231C448.804 226.584 578.003 109.897 734.402 109.897C890.801 109.897 1020 228.161 1020 373.231C1020 518.301 892.501 638.141 734.402 638.141Z" fill="#777FDB"/>
<path d="M732.693 579.799C855.686 579.799 955.392 487.316 955.392 373.232C955.392 259.148 855.686 166.665 732.693 166.665C609.7 166.665 509.995 259.148 509.995 373.232C509.995 487.316 609.7 579.799 732.693 579.799Z" fill="#555FD2"/>
<path d="M732.697 521.456C820.952 521.456 892.496 455.094 892.496 373.232C892.496 291.371 820.952 225.009 732.697 225.009C644.443 225.009 572.898 291.371 572.898 373.232C572.898 455.094 644.443 521.456 732.697 521.456Z" fill="white"/>
<path d="M732.694 461.533C785.272 461.533 827.894 421.998 827.894 373.23C827.894 324.461 785.272 284.926 732.694 284.926C680.117 284.926 637.495 324.461 637.495 373.23C637.495 421.998 680.117 461.533 732.694 461.533Z" fill="#777FDB"/>
<path d="M702.875 379.855C720.562 379.855 734.901 367.256 734.901 351.713C734.901 336.171 720.562 323.571 702.875 323.571C685.188 323.571 670.85 336.171 670.85 351.713C670.85 367.256 685.188 379.855 702.875 379.855Z" fill="white"/>
<path d="M518.492 166.666C518.492 215.548 509.992 254.969 509.992 254.969C509.992 254.969 501.492 215.548 501.492 166.666C501.492 117.783 509.992 78.3621 509.992 78.3621C509.992 78.3621 518.492 117.783 518.492 166.666ZM470.892 179.28C487.892 212.394 492.992 240.777 492.992 240.777C492.992 240.777 469.192 217.125 452.192 184.011C435.192 150.897 430.092 122.514 430.092 122.514C430.092 122.514 453.892 146.167 470.892 179.28ZM549.092 179.28C532.092 212.394 526.992 240.777 526.992 240.777C526.992 240.777 550.792 217.125 567.791 184.011C584.791 150.897 589.891 122.514 589.891 122.514C589.891 122.514 566.091 146.167 549.092 179.28Z" fill="white"/>
<path d="M287.295 579.799C410.288 579.799 509.994 487.316 509.994 373.232C509.994 259.148 410.288 166.665 287.295 166.665C164.302 166.665 64.5967 259.148 64.5967 373.232C64.5967 487.316 164.302 579.799 287.295 579.799Z" fill="#555FD2"/>
<path d="M287.299 521.456C375.554 521.456 447.098 455.094 447.098 373.232C447.098 291.371 375.554 225.009 287.299 225.009C199.045 225.009 127.5 291.371 127.5 373.232C127.5 455.094 199.045 521.456 287.299 521.456Z" fill="white"/>
<path d="M287.293 461.533C339.87 461.533 382.493 421.998 382.493 373.23C382.493 324.461 339.87 284.926 287.293 284.926C234.716 284.926 192.094 324.461 192.094 373.23C192.094 421.998 234.716 461.533 287.293 461.533Z" fill="#777FDB"/>
<path d="M318.57 379.855C336.257 379.855 350.596 367.256 350.596 351.713C350.596 336.171 336.257 323.571 318.57 323.571C300.883 323.571 286.544 336.171 286.544 351.713C286.544 367.256 300.883 379.855 318.57 379.855Z" fill="white"/>
<path d="M445.402 507.262C445.402 557.722 470.901 603.45 510.001 633.41C549.101 603.45 574.601 557.722 574.601 507.262C574.601 456.803 549.101 411.075 510.001 381.115C470.901 411.075 445.402 455.226 445.402 507.262Z" fill="#FFCE31"/>
<path d="M565.344 516.943C572.516 459.483 528.844 413.952 512.195 404.871C512.195 475.045 511.81 615.155 517.469 609.684C536.872 590.922 558.172 574.403 565.344 516.943Z" fill="#F2B200" stroke="#F2B200"/>
</svg>
